<svg width="191" height="36" viewBox="0 0 191 36" fill="none" xmlns="http://www.w3.org/2000/svg">
<path d="M10.3042 2.87598C14.4497 2.87598 17.4746 3.76953 19.3789 5.55664C21.2832 7.3291 22.2354 9.77539 22.2354 12.8955C22.2354 14.3018 22.0229 15.6494 21.5981 16.9385C21.1733 18.2129 20.4775 19.3481 19.5107 20.3442C18.5586 21.3403 17.2842 22.1313 15.6875 22.7173C14.0908 23.2886 12.1206 23.5742 9.77686 23.5742H6.85449V35H0.0429688V2.87598H10.3042ZM9.95264 8.45703H6.85449V17.9932H9.0957C10.3701 17.9932 11.4761 17.8247 12.4136 17.4878C13.3511 17.1509 14.0762 16.6235 14.5889 15.9058C15.1016 15.188 15.3579 14.2651 15.3579 13.1372C15.3579 11.5552 14.9185 10.3833 14.0396 9.62158C13.1606 8.84521 11.7983 8.45703 9.95264 8.45703ZM50.0967 22.6733C50.0967 24.7241 49.8184 26.5405 49.2617 28.1226C48.7197 29.7046 47.9214 31.0449 46.8667 32.1436C45.8267 33.2275 44.5669 34.0479 43.0874 34.6045C41.6226 35.1611 39.9673 35.4395 38.1216 35.4395C36.3931 35.4395 34.8037 35.1611 33.3535 34.6045C31.918 34.0479 30.6655 33.2275 29.5962 32.1436C28.5415 31.0449 27.7212 29.7046 27.1353 28.1226C26.564 26.5405 26.2783 24.7241 26.2783 22.6733C26.2783 19.9487 26.7617 17.6416 27.7285 15.752C28.6953 13.8623 30.0723 12.4268 31.8594 11.4453C33.6465 10.4639 35.7778 9.97314 38.2534 9.97314C40.5532 9.97314 42.5894 10.4639 44.3618 11.4453C46.1489 12.4268 47.5479 13.8623 48.5586 15.752C49.584 17.6416 50.0967 19.9487 50.0967 22.6733ZM33.1118 22.6733C33.1118 24.2847 33.2876 25.6396 33.6392 26.7383C33.9907 27.8369 34.54 28.6646 35.2871 29.2212C36.0342 29.7778 37.0083 30.0562 38.2095 30.0562C39.396 30.0562 40.3555 29.7778 41.0879 29.2212C41.835 28.6646 42.377 27.8369 42.7139 26.7383C43.0654 25.6396 43.2412 24.2847 43.2412 22.6733C43.2412 21.0474 43.0654 19.6997 42.7139 18.6304C42.377 17.5464 41.835 16.7334 41.0879 16.1914C40.3408 15.6494 39.3667 15.3784 38.1655 15.3784C36.3931 15.3784 35.104 15.9863 34.2983 17.2021C33.5073 18.418 33.1118 20.2417 33.1118 22.6733ZM69.3447 9.97314C69.6816 9.97314 70.0698 9.99512 70.5093 10.0391C70.9634 10.0684 71.3296 10.1123 71.6079 10.1709L71.1025 16.4551C70.8828 16.3818 70.5679 16.3306 70.1577 16.3013C69.7622 16.2573 69.418 16.2354 69.125 16.2354C68.2607 16.2354 67.4185 16.3452 66.5981 16.5649C65.7925 16.7847 65.0674 17.1436 64.4229 17.6416C63.7783 18.125 63.2656 18.7695 62.8848 19.5752C62.5186 20.3662 62.3354 21.3403 62.3354 22.4976V35H55.6338V10.4346H60.7095L61.6982 14.5654H62.0278C62.5112 13.7305 63.1118 12.9688 63.8296 12.2803C64.562 11.5771 65.3896 11.0205 66.3125 10.6104C67.25 10.1855 68.2607 9.97314 69.3447 9.97314ZM86.4175 30.1001C87.1499 30.1001 87.8604 30.0269 88.5488 29.8804C89.252 29.7339 89.9478 29.5508 90.6362 29.3311V34.3188C89.9185 34.6411 89.0249 34.9048 87.9556 35.1099C86.9009 35.3296 85.7437 35.4395 84.4839 35.4395C83.019 35.4395 81.7007 35.2051 80.5288 34.7363C79.3716 34.2529 78.4561 33.4253 77.7822 32.2534C77.123 31.0669 76.7935 29.4189 76.7935 27.3096V15.4663H73.5854V12.6318L77.2769 10.3906L79.2104 5.20508H83.4951V10.4346H90.3726V15.4663H83.4951V27.3096C83.4951 28.2471 83.7588 28.9502 84.2861 29.4189C84.8281 29.873 85.5386 30.1001 86.4175 30.1001ZM109.203 15.4663H103.402V35H96.7007V15.4663H93.0093V12.2363L96.7007 10.4346V8.63281C96.7007 6.53809 97.0522 4.91211 97.7554 3.75488C98.4731 2.58301 99.4766 1.7627 100.766 1.29395C102.069 0.810547 103.607 0.568848 105.38 0.568848C106.684 0.568848 107.87 0.678711 108.939 0.898438C110.009 1.10352 110.88 1.33789 111.554 1.60156L109.84 6.52344C109.328 6.3623 108.771 6.21582 108.17 6.08398C107.57 5.95215 106.881 5.88623 106.105 5.88623C105.167 5.88623 104.479 6.17188 104.04 6.74316C103.615 7.2998 103.402 8.01758 103.402 8.89648V10.4346H109.203V15.4663ZM135.395 22.6733C135.395 24.7241 135.116 26.5405 134.56 28.1226C134.018 29.7046 133.219 31.0449 132.165 32.1436C131.125 33.2275 129.865 34.0479 128.385 34.6045C126.92 35.1611 125.265 35.4395 123.419 35.4395C121.691 35.4395 120.102 35.1611 118.651 34.6045C117.216 34.0479 115.963 33.2275 114.894 32.1436C113.839 31.0449 113.019 29.7046 112.433 28.1226C111.862 26.5405 111.576 24.7241 111.576 22.6733C111.576 19.9487 112.06 17.6416 113.026 15.752C113.993 13.8623 115.37 12.4268 117.157 11.4453C118.944 10.4639 121.076 9.97314 123.551 9.97314C125.851 9.97314 127.887 10.4639 129.66 11.4453C131.447 12.4268 132.846 13.8623 133.856 15.752C134.882 17.6416 135.395 19.9487 135.395 22.6733ZM118.41 22.6733C118.41 24.2847 118.585 25.6396 118.937 26.7383C119.289 27.8369 119.838 28.6646 120.585 29.2212C121.332 29.7778 122.306 30.0562 123.507 30.0562C124.694 30.0562 125.653 29.7778 126.386 29.2212C127.133 28.6646 127.675 27.8369 128.012 26.7383C128.363 25.6396 128.539 24.2847 128.539 22.6733C128.539 21.0474 128.363 19.6997 128.012 18.6304C127.675 17.5464 127.133 16.7334 126.386 16.1914C125.639 15.6494 124.665 15.3784 123.463 15.3784C121.691 15.3784 120.402 15.9863 119.596 17.2021C118.805 18.418 118.41 20.2417 118.41 22.6733ZM147.633 35H140.932V0.810547H147.633V35ZM161.388 10.4346V35H154.687V10.4346H161.388ZM158.048 0.810547C159.044 0.810547 159.901 1.04492 160.619 1.51367C161.337 1.96777 161.696 2.82471 161.696 4.08447C161.696 5.32959 161.337 6.19385 160.619 6.67725C159.901 7.146 159.044 7.38037 158.048 7.38037C157.038 7.38037 156.173 7.146 155.456 6.67725C154.752 6.19385 154.401 5.32959 154.401 4.08447C154.401 2.82471 154.752 1.96777 155.456 1.51367C156.173 1.04492 157.038 0.810547 158.048 0.810547ZM190.766 22.6733C190.766 24.7241 190.487 26.5405 189.931 28.1226C189.389 29.7046 188.59 31.0449 187.536 32.1436C186.496 33.2275 185.236 34.0479 183.756 34.6045C182.292 35.1611 180.636 35.4395 178.791 35.4395C177.062 35.4395 175.473 35.1611 174.022 34.6045C172.587 34.0479 171.334 33.2275 170.265 32.1436C169.21 31.0449 168.39 29.7046 167.804 28.1226C167.233 26.5405 166.947 24.7241 166.947 22.6733C166.947 19.9487 167.431 17.6416 168.397 15.752C169.364 13.8623 170.741 12.4268 172.528 11.4453C174.315 10.4639 176.447 9.97314 178.922 9.97314C181.222 9.97314 183.258 10.4639 185.031 11.4453C186.818 12.4268 188.217 13.8623 189.228 15.752C190.253 17.6416 190.766 19.9487 190.766 22.6733ZM173.781 22.6733C173.781 24.2847 173.957 25.6396 174.308 26.7383C174.66 27.8369 175.209 28.6646 175.956 29.2212C176.703 29.7778 177.677 30.0562 178.878 30.0562C180.065 30.0562 181.024 29.7778 181.757 29.2212C182.504 28.6646 183.046 27.8369 183.383 26.7383C183.734 25.6396 183.91 24.2847 183.91 22.6733C183.91 21.0474 183.734 19.6997 183.383 18.6304C183.046 17.5464 182.504 16.7334 181.757 16.1914C181.01 15.6494 180.036 15.3784 178.834 15.3784C177.062 15.3784 175.773 15.9863 174.967 17.2021C174.176 18.418 173.781 20.2417 173.781 22.6733Z" fill="white"/>
</svg>
